name Walk8.mot
datacolumns 19
datarows 10
range 1.09000000 1.13500000
endheader

                time	   L_ground_force_vx	   L_ground_force_vy	   L_ground_force_vz	   L_ground_force_px	   L_ground_force_py	   L_ground_force_pz	   R_ground_force_vx	   R_ground_force_vy	   R_ground_force_vz	   R_ground_force_px	   R_ground_force_py	   R_ground_force_pz	   L_ground_torque_x	   L_ground_torque_y	   L_ground_torque_z	   R_ground_torque_x	   R_ground_torque_y	   R_ground_torque_z	
          1.09000000	         -0.00000000	         -0.00000003	          0.00000000	         -0.00000000	          0.00000000	         -0.00000000	        -12.86335871	        140.10399245	         15.92380803	         -0.04623281	          0.00000000	          0.05315446	          0.00000000	          0.00000000	          0.00000000	          0.00000000	         -0.08952873	          0.00000000	
          1.09500000	          0.00000000	         -0.00000005	          0.00000001	         -0.00000000	          0.00000000	         -0.00000000	        -22.64312565	        196.24180638	         19.63649426	         -0.09913975	          0.00000000	          0.11905227	          0.00000000	          0.00000000	          0.00000000	          0.00000000	         -0.02371377	          0.00000000	
          1.10000000	          0.00000000	         -0.00000006	          0.00000001	         -0.00000000	          0.00000000	         -0.00000000	        -33.17262332	        254.67942723	         22.98928889	         -0.14533949	          0.00000000	          0.17726643	          0.00000000	          0.00000000	          0.00000000	          0.00000000	          0.06014558	          0.00000000	
          1.10500000	          0.00000000	         -0.00000007	          0.00000001	         -0.00000000	          0.00000000	         -0.00000000	        -44.35875137	        312.48645568	         25.43639415	         -0.18325309	          0.00000000	          0.22600846	          0.00000000	          0.00000000	          0.00000000	          0.00000000	          0.16875238	          0.00000000	
          1.11000000	          0.00000001	         -0.00000008	          0.00000001	         -0.00000000	          0.00000000	         -0.00000000	        -56.19076597	        367.69449755	         26.43721007	         -0.21249876	          0.00000000	          0.26489522	          0.00000000	          0.00000000	          0.00000000	          0.00000000	          0.31036485	          0.00000000	
          1.11500000	          0.00000001	         -0.00000009	          0.00000001	         -0.00000000	          0.00000000	         -0.00000000	        -68.61173113	        419.31719719	         25.61186289	         -0.23349830	          0.00000000	          0.29446504	          0.00000000	          0.00000000	          0.00000000	          0.00000000	          0.49284558	          0.00000000	
          1.12000000	          0.00000001	         -0.00000009	          0.00000001	         -0.00000000	          0.00000000	         -0.00000000	        -81.44600428	        466.87097402	         22.82067241	         -0.24716363	          0.00000000	          0.31579635	          0.00000000	          0.00000000	          0.00000000	          0.00000000	          0.72007117	          0.00000000	
          1.12500000	          0.00000002	         -0.00000007	          0.00000001	         -0.00000000	          0.00000000	         -0.00000000	        -94.39143734	        510.23809407	         18.17591053	         -0.25466534	          0.00000000	          0.33022161	          0.00000000	          0.00000000	          0.00000000	          0.00000000	          0.98810864	          0.00000000	
          1.13000000	          0.00000002	         -0.00000004	          0.00000000	         -0.00000000	          0.00000000	         -0.00000000	       -107.08308135	        549.65535814	         12.01369347	         -0.25727068	          0.00000000	          0.33912643	          0.00000000	          0.00000000	          0.00000000	          0.00000000	          1.28238532	          0.00000000	
          1.13500000	          0.00000002	          0.00000001	         -0.00000001	          0.00000000	          0.00000000	          0.00000000	       -119.18994552	        585.50370445	          4.84963753	         -0.25623180	          0.00000000	          0.34381742	          0.00000000	          0.00000000	          0.00000000	          0.00000000	          1.57732437	          0.00000000	
